<mxfile host="app.diagrams.net" modified="2023-01-27T11:46:53.658Z" agent="5.0 (Windows NT 10.0; Win64; x64) AppleWebKit/537.36 (KHTML, like Gecko) Chrome/109.0.0.0 Safari/537.36" etag="JCs1kd5dFG1gu3aXmTtl" version="20.8.13" type="github">
  <diagram id="C5RBs43oDa-KdzZeNtuy" name="Page-1">
    <mxGraphModel dx="696" dy="951" grid="1" gridSize="10" guides="1" tooltips="1" connect="1" arrows="1" fold="1" page="1" pageScale="1" pageWidth="827" pageHeight="1169" math="0" shadow="0">
      <root>
        <mxCell id="WIyWlLk6GJQsqaUBKTNV-0" />
        <mxCell id="WIyWlLk6GJQsqaUBKTNV-1" parent="WIyWlLk6GJQsqaUBKTNV-0" />
        <mxCell id="x4mf5OaKACUxFs8vZrCU-61" value="" style="edgeStyle=none;orthogonalLoop=1;jettySize=auto;html=1;rounded=0;fontSize=12;startSize=8;endSize=8;curved=1;entryX=0.5;entryY=0;entryDx=0;entryDy=0;exitX=0.5;exitY=1;exitDx=0;exitDy=0;" edge="1" parent="WIyWlLk6GJQsqaUBKTNV-1" source="x4mf5OaKACUxFs8vZrCU-43" target="x4mf5OaKACUxFs8vZrCU-47">
          <mxGeometry width="120" relative="1" as="geometry">
            <mxPoint x="410" y="830" as="sourcePoint" />
            <mxPoint x="410" y="890" as="targetPoint" />
            <Array as="points">
              <mxPoint x="395" y="890" />
            </Array>
          </mxGeometry>
        </mxCell>
        <mxCell id="x4mf5OaKACUxFs8vZrCU-53" value="" style="shape=parallelogram;perimeter=parallelogramPerimeter;whiteSpace=wrap;html=1;fixedSize=1;fontSize=16;" vertex="1" parent="WIyWlLk6GJQsqaUBKTNV-1">
          <mxGeometry x="290" y="918.83" width="210" height="60" as="geometry" />
        </mxCell>
        <mxCell id="x4mf5OaKACUxFs8vZrCU-0" value="" style="ellipse;whiteSpace=wrap;html=1;fontSize=16;" vertex="1" parent="WIyWlLk6GJQsqaUBKTNV-1">
          <mxGeometry x="330" y="20" width="170" height="80" as="geometry" />
        </mxCell>
        <mxCell id="x4mf5OaKACUxFs8vZrCU-1" value="" style="edgeStyle=none;orthogonalLoop=1;jettySize=auto;html=1;rounded=0;fontSize=12;startSize=8;endSize=8;curved=1;exitX=0.529;exitY=1;exitDx=0;exitDy=0;exitPerimeter=0;" edge="1" parent="WIyWlLk6GJQsqaUBKTNV-1" source="x4mf5OaKACUxFs8vZrCU-0">
          <mxGeometry width="120" relative="1" as="geometry">
            <mxPoint x="430" y="120" as="sourcePoint" />
            <mxPoint x="420" y="150" as="targetPoint" />
            <Array as="points">
              <mxPoint x="420" y="140" />
            </Array>
          </mxGeometry>
        </mxCell>
        <mxCell id="x4mf5OaKACUxFs8vZrCU-12" value="" style="shape=stencil(lVbLUsMwDPyaXDWWbPlxhvIfzNDSDKVl2vL6e2QySSq3EcPNcbKxV7sru/N3p+3j27ojdzofDy/rz/7pvO38fUfU77frY3+WUedXnb/bHI7r5+Phff80PL891i/r6PXwUf/wNeByASwVRe57mPERAv3OPAyAXb+/AJQIFBQgyIw3AAVSVgBOkJIJCKwAsUAOBoCBNIeMgMYKWTZAClAccF4GpASsSZcEriwDIkPWK6Bz4Nwygn1bJqmDM4QIBLEBBCBeBngPsSlTBDRYk5RJs04M0agrMYSklfOQ0VwBnfYGQrY4ULtCQHCGN+pr1P4mYEsHHL02AuomjRVmihOAgQ3ScxEvVkiGmapMTUbFLFbkJiNMVaLR8UuRc9qubAt34eZJajaVq4HRdq2higZAIqnLVGNrsK6hjzoQDN6QurYVrVxtPcaW+CoQc3O77b4r5YrdLKX5el2luUEvAsp/ABTBaW9kEc4gjbGtUnaAltJA2hlJQmvI4Ns+Jolyxv/FF5oASyc0CFw5VXqC2ZTAaRt5NPlGiDo7hKbt0I/lmM4GGk+L2xuiNp1iIoOA7Lfo5NhN9fok+fOoYmy+T0oAGcwXjk2/2w33lcv37QVFpobLjV/9AA==);lineShape=1;fontSize=16;" vertex="1" parent="WIyWlLk6GJQsqaUBKTNV-1">
          <mxGeometry x="280.82501591344476" y="342.58767080564235" width="3.7918535431203164" height="3.7939390346352466" as="geometry" />
        </mxCell>
        <mxCell id="x4mf5OaKACUxFs8vZrCU-14" value="" style="shape=stencil(lVbLUsMwDPyaXDWWbPlxhvIfzNDSDKVl2vL6e2QySSq3EcPNcbKxV7sru/N3p+3j27ojdzofDy/rz/7pvO38fUfU77frY3+WUedXnb/bHI7r5+Phff80PL891i/r6PXwUf/wNeByASwVRe57mPERAv3OPAyAXb+/AJQIFBQgyIw3AAVSVgBOkJIJCKwAsUAOBoCBNIeMgMYKWTZAClAccF4GpASsSZcEriwDIkPWK6Bz4Nwygn1bJqmDM4QIBLEBBCBeBngPsSlTBDRYk5RJs04M0agrMYSklfOQ0VwBnfYGQrY4ULtCQHCGN+pr1P4mYEsHHL02AuomjRVmihOAgQ3ScxEvVkiGmapMTUbFLFbkJiNMVaLR8UuRc9qubAt34eZJajaVq4HRdq2higZAIqnLVGNrsK6hjzoQDN6QurYVrVxtPcaW+CoQc3O77b4r5YrdLKX5el2luUEvAsp/ABTBaW9kEc4gjbGtUnaAltJA2hlJQmvI4Ns+Jolyxv/FF5oASyc0CFw5VXqC2ZTAaRt5NPlGiDo7hKbt0I/lmM4GGk+L2xuiNp1iIoOA7Lfo5NhN9fok+fOoYmy+T0oAGcwXjk2/2w33lcv37QVFpobLjV/9AA==);lineShape=1;fontSize=16;" vertex="1" parent="WIyWlLk6GJQsqaUBKTNV-1">
          <mxGeometry x="667.8838394428567" y="169.64649433505406" width="3.7918535431200486" height="3.7939390346352466" as="geometry" />
        </mxCell>
        <mxCell id="x4mf5OaKACUxFs8vZrCU-15" value="" style="edgeStyle=none;orthogonalLoop=1;jettySize=auto;html=1;rounded=0;fontSize=12;startSize=8;endSize=8;curved=1;exitX=0.566;exitY=0.967;exitDx=0;exitDy=0;exitPerimeter=0;" edge="1" parent="WIyWlLk6GJQsqaUBKTNV-1">
          <mxGeometry width="120" relative="1" as="geometry">
            <mxPoint x="419.99686057213944" y="260.0379555081804" as="sourcePoint" />
            <mxPoint x="420" y="300" as="targetPoint" />
            <Array as="points">
              <mxPoint x="420" y="250" />
              <mxPoint x="420" y="280" />
              <mxPoint x="420" y="340" />
              <mxPoint x="420" y="310" />
              <mxPoint x="420" y="320" />
              <mxPoint x="420" y="230" />
            </Array>
          </mxGeometry>
        </mxCell>
        <mxCell id="x4mf5OaKACUxFs8vZrCU-16" value="" style="whiteSpace=wrap;html=1;fontSize=16;" vertex="1" parent="WIyWlLk6GJQsqaUBKTNV-1">
          <mxGeometry x="280" y="470" width="270" height="100" as="geometry" />
        </mxCell>
        <mxCell id="x4mf5OaKACUxFs8vZrCU-21" value="" style="whiteSpace=wrap;html=1;fontSize=16;" vertex="1" parent="WIyWlLk6GJQsqaUBKTNV-1">
          <mxGeometry x="320" y="650" width="205" height="60" as="geometry" />
        </mxCell>
        <mxCell id="x4mf5OaKACUxFs8vZrCU-22" value="" style="edgeStyle=none;orthogonalLoop=1;jettySize=auto;html=1;rounded=0;fontSize=12;startSize=8;endSize=8;curved=1;" edge="1" parent="WIyWlLk6GJQsqaUBKTNV-1">
          <mxGeometry width="120" relative="1" as="geometry">
            <mxPoint x="410" y="560" as="sourcePoint" />
            <mxPoint x="410" y="650" as="targetPoint" />
            <Array as="points">
              <mxPoint x="410" y="620" />
            </Array>
          </mxGeometry>
        </mxCell>
        <mxCell id="x4mf5OaKACUxFs8vZrCU-23" value="" style="whiteSpace=wrap;html=1;fontSize=16;" vertex="1" parent="WIyWlLk6GJQsqaUBKTNV-1">
          <mxGeometry x="310" y="785" width="160" height="60" as="geometry" />
        </mxCell>
        <mxCell id="x4mf5OaKACUxFs8vZrCU-24" value="" style="edgeStyle=none;orthogonalLoop=1;jettySize=auto;html=1;rounded=0;fontSize=12;startSize=8;endSize=8;curved=1;" edge="1" parent="WIyWlLk6GJQsqaUBKTNV-1">
          <mxGeometry width="120" relative="1" as="geometry">
            <mxPoint x="410" y="710" as="sourcePoint" />
            <mxPoint x="410" y="780" as="targetPoint" />
            <Array as="points" />
          </mxGeometry>
        </mxCell>
        <mxCell id="x4mf5OaKACUxFs8vZrCU-25" value="" style="whiteSpace=wrap;html=1;fontSize=16;" vertex="1" parent="WIyWlLk6GJQsqaUBKTNV-1">
          <mxGeometry x="310" y="300" width="180" height="90" as="geometry" />
        </mxCell>
        <mxCell id="x4mf5OaKACUxFs8vZrCU-28" value="" style="shape=stencil(lVbLUsMwDPyaXDWWbPlxhvIfzNDSDKVl2vL6e2QySSq3EcPNcbKxV7sru/N3p+3j27ojdzofDy/rz/7pvO38fUfU77frY3+WUedXnb/bHI7r5+Phff80PL891i/r6PXwUf/wNeByASwVRe57mPERAv3OPAyAXb+/AJQIFBQgyIw3AAVSVgBOkJIJCKwAsUAOBoCBNIeMgMYKWTZAClAccF4GpASsSZcEriwDIkPWK6Bz4Nwygn1bJqmDM4QIBLEBBCBeBngPsSlTBDRYk5RJs04M0agrMYSklfOQ0VwBnfYGQrY4ULtCQHCGN+pr1P4mYEsHHL02AuomjRVmihOAgQ3ScxEvVkiGmapMTUbFLFbkJiNMVaLR8UuRc9qubAt34eZJajaVq4HRdq2higZAIqnLVGNrsK6hjzoQDN6QurYVrVxtPcaW+CoQc3O77b4r5YrdLKX5el2luUEvAsp/ABTBaW9kEc4gjbGtUnaAltJA2hlJQmvI4Ns+Jolyxv/FF5oASyc0CFw5VXqC2ZTAaRt5NPlGiDo7hKbt0I/lmM4GGk+L2xuiNp1iIoOA7Lfo5NhN9fok+fOoYmy+T0oAGcwXjk2/2w33lcv37QVFpobLjV/9AA==);lineShape=1;fontSize=16;" vertex="1" parent="WIyWlLk6GJQsqaUBKTNV-1">
          <mxGeometry x="343.6068263796534" y="937.8481940513916" width="1.9533790979709342" height="1.9544534420845485" as="geometry" />
        </mxCell>
        <mxCell id="x4mf5OaKACUxFs8vZrCU-33" value="" style="edgeStyle=none;orthogonalLoop=1;jettySize=auto;html=1;rounded=0;fontSize=12;startSize=8;endSize=8;curved=1;exitX=0.542;exitY=0.988;exitDx=0;exitDy=0;exitPerimeter=0;" edge="1" parent="WIyWlLk6GJQsqaUBKTNV-1">
          <mxGeometry width="120" relative="1" as="geometry">
            <mxPoint x="410.53999999999996" y="979.96828" as="sourcePoint" />
            <mxPoint x="410" y="1050" as="targetPoint" />
            <Array as="points" />
          </mxGeometry>
        </mxCell>
        <mxCell id="x4mf5OaKACUxFs8vZrCU-34" value="" style="ellipse;whiteSpace=wrap;html=1;fontSize=16;" vertex="1" parent="WIyWlLk6GJQsqaUBKTNV-1">
          <mxGeometry x="325.83000000000004" y="1050" width="170" height="60" as="geometry" />
        </mxCell>
        <mxCell id="x4mf5OaKACUxFs8vZrCU-37" value="" style="shape=stencil(7VzLkhy3EfyavXbg/TjL8n8oQqS5YZpUUJQl/b0KXmI4k9mdGJx80Y2czepuAIWqrAfwEn/49cNPv7x7Ce7Xr18+//vd768/f/3wEv/xEsLrpw/vvrx+tX+9xB9f4g/vP395968vn3/79PPb/3/5aSDHv/7z+b/jCX+8yUV3BD+kgvvz7Rf7If/vh3++4T++frrH+yMlxFeBj/PPd/gm8PlIAfFd4Ovh3A6+Hw6/J7prfPJHKDv4eGTCe4HPR6fvUfh2xLiBz+4oW/hwtJ3vz/lwqD8SX47ed/B97/nFHw71R+LD0bfw6Sg761XKEXfGW9rhd+a/9KPjflT46o+y8/x6sn8lPh1tZz7r5vzUtqcPtR955/nN9Gdnv7RwJLQ/Eh+PujP/zfZX3sGXE3ul8HXPnrRN+9P6NMfP4bvb+/5u9nln/ns4/I5+9ni4nf1l+L6zXn1zv/S8p8+9THf7nP8yfEO88u+9nvjrKPEd18sLf93bHN4dXvATwxecH6/mp/P+coKfGD7h9zj1Pf2oOF6n5t/waG+/ObQrfEP9dGo+++b89xN9VutreNSfLMbrnWMCV8QCnAp8oyxPfpGfW/rJEd9MzJMz6o+onw8rZpR6oUEV8FlrdMXvyfp7wEL7SdGudlh/9ABGGTU+Pc5n0jusIqPJ02Ve4cEj1UnprixcedzB3ukJyuiyfZwk8NKmwwpXGZSY0wAnMHRajSHgGtukyjGYjj1ugtDmL5d++FEghsnUrhw9BFaxTGp0xTwa6IWbvu2K2gB1TTbR6g15mp6bQJt7+1wgIRnNUVprY3OgexbfqM1gdDE+rnSxQYt1MD6KAunwQvmawzGUKlWDGXJ1UjWMgkOIWKO0qCbg4Q15jupcwL74UTWq3kCVokp7Z9dhB6jGmDf1SWW61ZuAbSmxDjbE+riBRqggPGclbW1RUi8TgNDM9FdxkUqxhAm0RTD3aMhsSxU1Swl1yTZtUgtnOw7GsFjpNOnfTcC0S2xR083WUUBt0RoxwjfTVpR6R0yJmfGMagPZuj7uaTPPcgwBTaU5AMXCTAB0yVyMomEmAGGUObGq8wjAesxNymn1qBrmuL0ag6dZatKhmNkC6j/IuhYAH/eda10lW/gNyqEUyl7d0dfL/E+mV6hvqrRyXfKfUua03wk0oa7mcHohATXqiDnHISCWulhQnkhAZb0cUoGxckL7cp9O815ADDrXueefFcgYZpiA4uk5zUT7nYDaEDlgqG0bQu3RkfslgSCotNGj9qiutkfVOqSCxnWwcfWGRGajzF/OBQIpX5nm9iphD456pEBURaOTFSiSYcUbn7oXEAsXiQoMAbFFY5o5i3sBsQ7GzTPNkhTwm28IHb3iSqCR+V4IlLmDnxXIU9WeFUhojVcCFGatBPykeM8KOLJLRXJp37BeZH5XuSALPSsJNPUGo8YkUIV6+4wcrmuW6BMNOktT6cPJoFUw6v0MDO8EgswqkWfPOo85o7Z7vMqDY0Qz8IqbkI3R+HL2PQKfyb1pvLHBsIOPxFhXeMcLJvDMVzWe8h8LvDv5fi8cm8NEgOFV3paSmMa3lf44LEsZoVdezWHa3CIGFRs6Mr5O5rjI0LVbWvBqvSCSLJMkXugDeI8WZUYsoS+weL5I/U+cYVCsGR2sBXFVxdpoT6quuzScf6Ppaj6NHz9axKJzkmbgoM5dnFwATwGeUWLpN8Lk+DcBbRJ9nOz1JhAknzW/kUFAN3v4jNQuVZlLNt8H0VfKspxi3tVBTjJIemr+G+qJxj+rEuC8apWWZVAKeEOSqj3qG48LF70ME2wzw2YbZE+MwXYzLJztPymQMEcfdMJj+DPI0ZuHVoMuGBt5nbkdHhlC+XQkNUtUKfdBD7rPusj3ZIGs7QaqDDVtU8lJVe2THbKoPEszl0HFoxFL0kZGCvu9tNkDj5Uqlag2fMBKXtJRFOTavWSZ3ysid89X8x/Q6XipowOPzy96PjN+v/KZZ3hV+YuUVQySE43vBzsh9XngYdcv1yshXgXuARPma/zm93ga70Kfw958eqzsLtaL8CqbM/BgsVb65qkyrfUt4PMX+yVSZX2xH/F7FuuV6Hu0PUnYSVAWWRlwGZJ9nO5HPT/oVldZIiwCSz+/jacgS0fphgfyVGQBODoMcqvMQxse8z2SLtqfwZ4M1ixeMKJ6UIgwefkVicBejiybIQK1Y/kqUyXDRYNN0Q1T5qOhmhuCLDgE6mC0d6r6gT0PqJbNm5wlj37PNEVyM6p5xyR7gowcgqc3Uq1MndF2MEXJyUS3p66UFGUAbvQTjJGFHrIRKmNIOnrDhfk1vgppaAuf1MJZgAZptxwlCzcByL1bCKgYiCePmZtshvJEMYuXeRBP0VBJuqERw63RPqHKlDhHFuirzoOCJfVRAhcDyDM6vEtUqDA8TT2+xQReH9BAn9OSNjCYyBwdxCp+nSHADX8rol7gsf6p2+Mczs/ojRLjdcgx+60qcJUIrIhXDZOcaEwy83xWeFd4TpSu8JjI1Pg0c/1P4jmRrPGcqNZ4ToQn6cQ50a7xnMhPkrSfVAqSNrueiqq3ppcro4iV5CR56ainkIAKpEfFhgRk5u1s1aRhr1TyTJLLjroWJehVIeykcpZlFfakNrcoMXD1byHA9cWFAFcwFwJcI10IcBV2IcB13kXhhivJCwGuVS8EuBq+EOB6u85En1T0s0yZRuqZHgKq7+FslpTbHH0P9AbFQ1LCtuxRGBaGLxUSWHRWNHIluncjc5eO5gqZEka96qabRL0bTZc9C7nPNsvd5wLcB9RkL9NJp1GTpvKkl6np5ifulmqy+emkH6vpPjfu+GqySHHSU9am8TwX4K61JpssR18cvUG1NZsAj0FlIwr1QfcmI2cj+lDKGUcXtAB2ZVa54yol4G3HLboyIaNoRkAVKarHlPSiDm0CaFujTDpV1lYvN1ClLNiiFG0CnUIMFZvXiHyptbkHrwSwJVhXTkwAiqdNH4Y4aWvOksKZAJw7Hb3calo5MIwyzzOavzsKLPrRwfK1oJUvz/T7Xawq1TvjOZnm5AmQWjDjXLt+Q8E+l9r0+eKKNYXxCPVJdaYH7hIAyhjXhv1YNcgI3YYIuaqiu5RtEqFOYOZZxcR8SHq4GPWGQAL62GSjY7fmudWeNu2HMWRd3GkZizvGb1S1wHYwVBeMcinOZzYCE3ROhjSNmkCMyao9bXauc6JUnVWk9NlIoavomI63hyh1qXOpf3EgmJo6LNhUXKPTDSEj7aiOshVqtJYZusFqoddH1u07RQ9ZH/FteAxHe9BBdLAMpgzGOKCJB2SrIKCdyh5O7v6/jzT/faR5tWL/9yPNkOT18hQaXwLgJXHhSwb8tElX+Ijfow6I8SUJi/mnSxj85iUPuuGLL5Hw2qbTJRVeplP4EowFni7ZWOId6qfEU2PGAk+XkCzwdMmJxvMlKgs8t55pPBUrF3i6ZGaBp4OnCzyVmBd4YikLPPFXjecj0gs8XVK0wNMlSAv85n7hS5wWeLokSuP5EqoFni65WuA354cv6Vrg6RKwBZ4uGdN4vsRsgafj7As8XcKm7TNf8rbA0yVyGs+X1C3wdAneAk+X7C3wdImfxvMlgV5GAHwJ4QLPIYw+oni2fxeNWLQfVQ8AXQLpdU3Znexf/fwtfxoddULLTGx07F+cmh/HlwSqoJYbyZyMy8/wKut09j3qUhAer9ONrDSf+oICXi/diM76sLgUdPfS0SXe/vH9htP3rx8/vl2Qev93vBHVfnq7TTX++Bc=);lineShape=1;fontSize=16;" vertex="1" parent="WIyWlLk6GJQsqaUBKTNV-1">
          <mxGeometry x="200" y="150" width="420" height="110" as="geometry" />
        </mxCell>
        <mxCell id="x4mf5OaKACUxFs8vZrCU-39" value="start" style="text;strokeColor=none;fillColor=none;html=1;align=center;verticalAlign=middle;whiteSpace=wrap;rounded=0;fontSize=16;rotation=0;" vertex="1" parent="WIyWlLk6GJQsqaUBKTNV-1">
          <mxGeometry x="350" y="40" width="120" height="40" as="geometry" />
        </mxCell>
        <mxCell id="x4mf5OaKACUxFs8vZrCU-40" value="input: int nun_1,&lt;br&gt;int num_2" style="text;strokeColor=none;fillColor=none;html=1;align=center;verticalAlign=middle;whiteSpace=wrap;rounded=0;fontSize=16;rotation=0;" vertex="1" parent="WIyWlLk6GJQsqaUBKTNV-1">
          <mxGeometry x="310" y="160" width="200" height="80" as="geometry" />
        </mxCell>
        <mxCell id="x4mf5OaKACUxFs8vZrCU-41" value="find the square of num_1 and num_2" style="text;strokeColor=none;fillColor=none;html=1;align=center;verticalAlign=middle;whiteSpace=wrap;rounded=0;fontSize=16;rotation=0;" vertex="1" parent="WIyWlLk6GJQsqaUBKTNV-1">
          <mxGeometry x="290" y="500" width="260" height="45" as="geometry" />
        </mxCell>
        <mxCell id="x4mf5OaKACUxFs8vZrCU-42" value="find the sum of squares of num_1 and num_2 to be equal to sum" style="text;strokeColor=none;fillColor=none;html=1;align=center;verticalAlign=middle;whiteSpace=wrap;rounded=0;fontSize=16;rotation=0;" vertex="1" parent="WIyWlLk6GJQsqaUBKTNV-1">
          <mxGeometry x="340" y="650" width="180" height="60" as="geometry" />
        </mxCell>
        <mxCell id="x4mf5OaKACUxFs8vZrCU-43" value="print sum" style="text;strokeColor=none;fillColor=none;html=1;align=center;verticalAlign=middle;whiteSpace=wrap;rounded=0;fontSize=16;rotation=0;" vertex="1" parent="WIyWlLk6GJQsqaUBKTNV-1">
          <mxGeometry x="343.61" y="790" width="95" height="40" as="geometry" />
        </mxCell>
        <mxCell id="x4mf5OaKACUxFs8vZrCU-46" value="initialize int sum" style="text;strokeColor=none;fillColor=none;html=1;align=center;verticalAlign=middle;whiteSpace=wrap;rounded=0;fontSize=16;rotation=0;" vertex="1" parent="WIyWlLk6GJQsqaUBKTNV-1">
          <mxGeometry x="330" y="300" width="150" height="90" as="geometry" />
        </mxCell>
        <mxCell id="x4mf5OaKACUxFs8vZrCU-47" value="output sum" style="text;strokeColor=none;fillColor=none;html=1;align=center;verticalAlign=middle;whiteSpace=wrap;rounded=0;fontSize=16;rotation=0;" vertex="1" parent="WIyWlLk6GJQsqaUBKTNV-1">
          <mxGeometry x="310" y="918.83" width="170" height="40" as="geometry" />
        </mxCell>
        <mxCell id="x4mf5OaKACUxFs8vZrCU-49" value="end" style="text;strokeColor=none;fillColor=none;html=1;align=center;verticalAlign=middle;whiteSpace=wrap;rounded=0;fontSize=16;rotation=0;" vertex="1" parent="WIyWlLk6GJQsqaUBKTNV-1">
          <mxGeometry x="330" y="1060" width="170" height="40" as="geometry" />
        </mxCell>
        <mxCell id="x4mf5OaKACUxFs8vZrCU-59" value="" style="edgeStyle=none;orthogonalLoop=1;jettySize=auto;html=1;rounded=0;fontSize=12;startSize=8;endSize=8;curved=1;" edge="1" parent="WIyWlLk6GJQsqaUBKTNV-1">
          <mxGeometry width="120" relative="1" as="geometry">
            <mxPoint x="400" y="380" as="sourcePoint" />
            <mxPoint x="400" y="470" as="targetPoint" />
            <Array as="points" />
          </mxGeometry>
        </mxCell>
      </root>
    </mxGraphModel>
  </diagram>
</mxfile>
